<svg width="606" height="550" viewBox="0 0 606 550" fill="none" xmlns="http://www.w3.org/2000/svg">
<g clip-path="url(#clip0_4_53)">
<path d="M606 275C606.062 313.309 598.075 351.205 582.556 386.234C582.056 387.366 581.548 388.491 581.033 389.608C580.779 390.171 580.518 390.726 580.257 391.289C579.997 391.844 579.736 392.406 579.468 392.962C579.125 393.682 578.782 394.395 578.432 395.108C578 396.007 577.56 396.898 577.107 397.79C577.053 397.913 576.991 398.037 576.922 398.16C576.545 398.915 576.167 399.669 575.776 400.423C575.694 400.588 575.611 400.752 575.522 400.91C575.076 401.788 574.616 402.666 574.15 403.537V403.544C573.655 404.469 573.159 405.393 572.66 406.314C571.425 408.591 570.156 410.847 568.852 413.083C568.46 413.748 568.076 414.413 567.678 415.072C567.314 415.689 566.951 416.299 566.58 416.91C566.326 417.335 566.072 417.753 565.811 418.171C565.4 418.85 564.981 419.529 564.555 420.208C564.549 420.215 564.549 420.215 564.549 420.222C563.608 421.731 562.648 423.233 561.68 424.721H561.673C561.227 425.413 560.774 426.099 560.321 426.785V426.792C558.955 428.849 557.562 430.886 556.142 432.902V432.909C556.136 432.909 556.132 432.912 556.128 432.916V432.923L556.114 432.936C554.989 434.548 553.84 436.146 552.669 437.73V437.737C551.921 438.752 551.166 439.767 550.404 440.768C549.78 441.591 549.149 442.412 548.51 443.23C548.38 443.408 548.243 443.58 548.099 443.758V443.765C547.927 443.991 547.755 444.211 547.57 444.437V444.444C544.859 447.907 542.066 451.302 539.191 454.628H539.184C539.033 454.813 538.875 454.991 538.717 455.17C538.566 455.348 538.401 455.526 538.244 455.711H538.237C537.997 455.993 537.75 456.274 537.503 456.555C537.262 456.836 537.008 457.117 536.754 457.398V457.405C521.766 474.304 504.756 489.298 486.107 502.05C483.623 503.757 481.107 505.419 478.558 507.036C477.927 507.44 477.296 507.838 476.657 508.236C476.465 508.366 476.273 508.483 476.081 508.599C475.745 508.812 475.401 509.024 475.058 509.237C474.722 509.443 474.379 509.655 474.036 509.861C472.67 510.698 471.291 511.521 469.911 512.33C469.568 512.536 469.218 512.734 468.868 512.94C468.525 513.139 468.175 513.338 467.825 513.537C467.82 513.544 467.814 513.55 467.807 513.555C467.8 513.559 467.792 513.563 467.784 513.564L467.77 513.571L467.756 513.585H467.749C466.02 514.579 464.284 515.56 462.527 516.506C459.384 518.221 456.209 519.873 453.001 521.464C452.205 521.862 451.402 522.253 450.599 522.644C449.934 522.966 449.261 523.289 448.595 523.604C448.41 523.693 448.232 523.782 448.046 523.865C447.491 524.125 446.935 524.386 446.379 524.64C445.775 524.928 445.164 525.202 444.56 525.476C443.881 525.785 443.208 526.087 442.529 526.388C439.976 527.527 437.395 528.624 434.808 529.68C425.565 533.462 416.119 536.727 406.513 539.459C406.067 539.59 405.614 539.72 405.161 539.844C401.05 540.996 396.91 542.049 392.74 543.005C385.458 544.678 378.11 546.052 370.696 547.127C370.683 547.127 370.662 547.133 370.648 547.133C369.763 547.264 368.871 547.387 367.986 547.511C367.91 547.524 367.828 547.538 367.745 547.545C367.738 547.552 367.732 547.552 367.718 547.545C367.718 547.545 367.718 547.552 367.711 547.545C366.73 547.675 365.748 547.805 364.76 547.929C364.691 547.943 364.623 547.95 364.554 547.956C363.635 548.066 362.708 548.176 361.782 548.279C360.786 548.388 359.791 548.491 358.789 548.594C358.028 548.67 357.266 548.745 356.504 548.814C356.436 548.827 356.367 548.834 356.298 548.834C355.605 548.896 354.912 548.958 354.219 549.012C354.191 549.012 354.157 549.019 354.13 549.019C353.526 549.074 352.922 549.115 352.318 549.163C345.215 549.726 338.043 550.005 330.803 550C322.945 550 315.167 549.673 307.47 549.019C307.442 549.019 307.415 549.012 307.387 549.012C305.747 548.875 304.109 548.724 302.474 548.56C302.041 548.519 301.616 548.471 301.183 548.43C301.101 548.423 301.019 548.416 300.936 548.402C300.806 548.388 300.676 548.375 300.538 548.361C300.47 548.354 300.394 548.347 300.326 548.334C299.756 548.272 299.186 548.21 298.61 548.142C297.972 548.066 297.327 547.991 296.688 547.908C296.05 547.833 295.405 547.751 294.767 547.661C294.63 547.648 294.485 547.634 294.348 547.607C293.881 547.552 293.415 547.49 292.955 547.421C292.729 547.394 292.509 547.36 292.289 547.325C291.843 547.264 291.404 547.202 290.958 547.133C290.944 547.133 290.924 547.127 290.91 547.127C276.896 545.104 263.062 541.988 249.534 537.807H249.527C248.793 537.58 248.059 537.347 247.325 537.114C247.105 537.052 246.885 536.984 246.666 536.908C244.758 536.298 242.861 535.667 240.976 535.016C238.375 534.124 235.793 533.191 233.228 532.218C232.528 531.95 231.835 531.683 231.135 531.415C229.742 530.867 228.356 530.318 226.976 529.756C224.622 528.796 222.285 527.806 219.963 526.786H219.956V526.779C217.787 525.826 215.635 524.843 213.498 523.83C213.435 523.812 213.375 523.784 213.32 523.748C213.313 523.748 213.313 523.741 213.306 523.741C212.832 523.522 212.359 523.295 211.885 523.069L211.872 523.062C200.1 517.424 188.75 510.947 177.908 503.682C174.428 501.357 171.008 498.955 167.648 496.474C164.937 494.479 162.265 492.433 159.632 490.337C146.517 479.92 134.379 468.33 123.369 455.711H123.362V455.704C122.587 454.82 121.832 453.942 121.063 453.05V453.044C120.954 452.92 120.851 452.797 120.748 452.673C120.261 452.104 119.787 451.542 119.313 450.966V450.959C118.668 450.198 118.037 449.434 117.419 448.668C117.282 448.504 117.152 448.346 117.021 448.181H117.014V448.175C116.507 447.557 116.006 446.933 115.512 446.309C115.258 446.001 115.011 445.685 114.763 445.37H114.757V445.363C113.26 443.477 111.794 441.573 110.358 439.65V439.643C109.96 439.115 109.568 438.587 109.184 438.052H109.177C107.338 435.57 105.547 433.058 103.804 430.516V430.509C103.145 429.555 102.493 428.595 101.848 427.628C101.203 426.661 100.564 425.692 99.9331 424.721H99.9262C99.2743 423.719 98.6292 422.714 97.9909 421.703C97.9566 421.648 97.9223 421.6 97.8949 421.552C97.2634 420.558 96.6412 419.557 96.0282 418.549C95.5341 417.746 95.0468 416.951 94.5733 416.148C94.2439 415.607 93.9213 415.072 93.6056 414.523C93.4889 414.338 93.386 414.153 93.2831 413.974C92.5556 412.733 91.8419 411.492 91.1282 410.244C90.2978 408.776 89.4742 407.295 88.6713 405.814C88.3419 405.203 88.0125 404.586 87.6899 403.969C87.5733 403.77 87.4703 403.571 87.3674 403.365C86.9831 402.638 86.5987 401.911 86.2213 401.178C85.8438 400.451 85.4664 399.717 85.0958 398.983C84.7252 398.249 84.3546 397.516 83.9909 396.775C83.7164 396.219 83.4419 395.657 83.1742 395.102C83.1464 395.055 83.1212 395.007 83.0987 394.958C82.9752 394.697 82.8448 394.443 82.7282 394.183C82.7008 394.143 82.6799 394.099 82.6664 394.052C82.385 393.476 82.1105 392.907 81.8428 392.331C81.486 391.59 81.1429 390.843 80.7997 390.095C80.5527 389.574 80.3193 389.046 80.0791 388.518C79.736 387.777 79.3997 387.03 79.0703 386.276C78.7203 385.501 78.384 384.719 78.0477 383.937C77.9585 383.738 77.8761 383.546 77.7938 383.347C77.6359 382.991 77.485 382.634 77.334 382.277C76.9291 381.331 76.5311 380.371 76.1399 379.418C75.6938 378.341 75.2591 377.262 74.8359 376.181C74.431 375.173 74.0376 374.162 73.6555 373.15L73.5114 372.779V372.772C67.5484 357.112 63.0366 340.937 60.033 324.452V324.445C58.3203 315.033 57.1017 305.538 56.382 295.999C56.3409 295.478 56.3065 294.956 56.2722 294.435C55.8193 287.982 55.5974 281.504 55.6065 275C55.6065 272.113 55.6523 269.239 55.7438 266.38C57.5231 206.592 78.851 149.033 116.465 102.504C118.119 100.454 119.803 98.4285 121.516 96.4283C171.985 37.4096 247.023 0 330.803 0C428.755 0 514.759 51.139 563.519 128.16C566.058 132.151 568.488 136.215 570.807 140.353C593.953 181.455 606.075 227.837 606 275Z" fill="#F2F2F2"/>
<path d="M464.064 490.851C463.076 493.58 462.09 496.31 461.106 499.039C460.921 499.56 460.729 500.075 460.544 500.596C458.032 507.55 455.518 514.506 453.001 521.464C452.205 521.862 451.402 522.253 450.599 522.644C449.934 522.966 449.261 523.289 448.595 523.604C448.41 523.693 448.232 523.782 448.046 523.865C447.491 524.125 446.935 524.386 446.379 524.64C445.775 524.928 445.164 525.202 444.56 525.476C443.881 525.785 443.208 526.087 442.529 526.388C442.176 525.469 441.974 524.499 441.932 523.515C441.902 521.97 442.085 520.429 442.474 518.934C443.071 516.465 444.018 514.044 444.643 511.569C444.677 511.452 444.704 511.329 444.732 511.212C446.124 505.301 445.481 499.094 442.906 493.594C441.355 490.316 439.132 487.333 438.164 483.835C437.323 480.551 437.696 477.074 439.214 474.042C439.777 472.867 440.485 471.765 441.321 470.764C441.52 470.511 441.733 470.271 441.952 470.031C443.971 467.815 446.653 466.311 449.597 465.744C455.232 464.743 461.12 467.74 464.27 472.444C465.561 474.335 466.347 476.523 466.555 478.802C466.898 482.923 465.471 486.963 464.064 490.851Z" fill="#E4E4E4"/>
<path d="M448.506 518.708C447.216 516.328 445.054 514.243 444.643 511.569C443.304 502.983 440.079 496.824 434.733 493.334C433.182 492.325 432.935 490.097 431.981 488.492C431.555 487.772 431.123 487.052 430.677 486.345C429.956 485.173 429.206 484.023 428.426 482.896C426.947 480.717 425.317 478.646 423.546 476.696C422.812 475.88 422.037 475.092 421.234 474.344L421.227 474.337C420.726 473.857 420.218 473.398 419.69 472.952C419.484 472.774 419.271 472.595 419.051 472.417L419.038 472.403C418.11 471.6 417.139 470.849 416.128 470.154C413.801 468.584 411.173 467.493 408.476 468.364C407.416 468.727 406.395 469.196 405.429 469.763C404.935 470.044 404.447 470.339 403.96 470.634C403.631 470.833 403.301 471.032 402.972 471.238C402.704 471.395 402.437 471.553 402.169 471.704C400.096 472.897 398.015 474.068 395.924 475.215C395.622 475.387 395.32 475.551 395.011 475.716H395.004C394.791 475.839 394.572 475.956 394.352 476.072C393.934 476.305 393.508 476.539 393.089 476.765C391.834 477.444 390.575 478.116 389.315 478.781C388.67 479.124 388.018 479.453 387.366 479.782C387.064 479.933 386.762 480.084 386.467 480.242H386.46C386.35 480.297 386.247 480.352 386.138 480.406C385.245 480.866 384.367 481.339 383.516 481.853C381.048 483.339 378.903 485.305 377.209 487.635C376.88 488.087 376.564 488.554 376.276 489.034C375.898 489.654 375.554 490.296 375.246 490.954C375.034 491.4 374.835 491.845 374.656 492.298V492.305C372.969 496.639 372.733 501.404 373.984 505.883V505.89C374.066 506.199 374.155 506.501 374.258 506.802C374.423 507.31 374.608 507.817 374.814 508.311C375.041 508.862 375.298 509.4 375.583 509.923V509.93C377.11 512.533 379.015 514.895 381.237 516.938L381.306 517.007C381.581 517.274 381.862 517.549 382.136 517.816C382.287 517.96 382.445 518.104 382.61 518.241C384.985 520.278 388.821 521.821 390.989 523.913C392.149 525.031 392.829 526.299 392.561 527.883C391.847 532.087 392.005 534.81 392.733 536.559C394.709 541.332 400.913 538.904 405.161 539.844C405.614 539.72 406.067 539.59 406.513 539.459C416.119 536.727 425.565 533.462 434.808 529.68C437.395 528.624 439.976 527.527 442.529 526.388C443.208 526.087 443.881 525.785 444.56 525.476C445.164 525.202 445.775 524.928 446.379 524.64C446.935 524.386 447.491 524.125 448.046 523.865C448.232 523.782 448.41 523.693 448.595 523.604C449.261 523.289 449.934 522.966 450.599 522.644C449.92 521.32 449.213 520.011 448.506 518.708Z" fill="#E4E4E4"/>
<path d="M398.295 452.128C399.738 447.774 397.754 444.902 392.65 443.378C392.476 443.22 392.264 443.108 392.036 443.053C391.807 442.998 391.568 443.001 391.341 443.062C391.113 443.123 390.905 443.24 390.735 443.402C390.564 443.564 390.437 443.767 390.365 443.99L385.909 457.185C381.248 455.994 377.829 456.81 377.086 461.418C378.926 456.725 377.195 453.781 372.02 452.525C371.851 452.358 371.644 452.235 371.416 452.17C371.187 452.104 370.946 452.097 370.715 452.15C370.483 452.202 370.269 452.312 370.091 452.47C369.914 452.627 369.779 452.827 369.7 453.051L366.769 464.935C363.2 470.308 361.447 476.682 361.768 483.123C362.088 489.564 364.465 495.732 368.551 500.725C372.636 505.717 378.214 509.27 384.467 510.863C390.721 512.456 397.32 512.005 403.299 509.577C409.277 507.148 414.319 502.869 417.687 497.368C421.054 491.866 422.569 485.432 422.009 479.007C421.45 472.583 418.845 466.506 414.577 461.669C410.31 456.832 404.604 453.488 398.295 452.128Z" fill="#E4E4E4"/>
<path d="M395.458 489.733C394.856 490.055 394.15 490.126 393.496 489.928C392.842 489.731 392.293 489.283 391.969 488.682C391.923 488.596 391.913 488.495 391.942 488.402C391.97 488.309 392.034 488.231 392.12 488.185C392.206 488.139 392.306 488.129 392.4 488.157C392.493 488.185 392.571 488.248 392.618 488.334C392.849 488.763 393.241 489.083 393.708 489.223C394.175 489.364 394.679 489.313 395.109 489.083C395.538 488.852 395.859 488.461 396 487.994C396.141 487.528 396.091 487.024 395.861 486.595C395.816 486.509 395.806 486.408 395.834 486.315C395.862 486.222 395.927 486.144 396.012 486.098C396.098 486.052 396.199 486.041 396.292 486.069C396.385 486.097 396.464 486.161 396.51 486.247C396.833 486.849 396.903 487.554 396.706 488.207C396.508 488.861 396.06 489.41 395.458 489.733Z" fill="white"/>
<path d="M392.762 484.323C394.195 483.554 395.117 482.485 394.821 481.934C394.525 481.383 393.124 481.56 391.691 482.328C390.257 483.097 389.335 484.166 389.631 484.717C389.927 485.268 391.329 485.091 392.762 484.323Z" fill="white"/>
<path d="M377.529 485.256C377.722 484.317 378.12 483.432 378.694 482.663C379.268 481.894 380.003 481.261 380.849 480.808C381.694 480.354 382.629 480.092 383.587 480.039C384.545 479.986 385.503 480.145 386.394 480.502C386.842 479.134 386.873 477.663 386.485 476.277C386.096 474.89 385.305 473.65 384.211 472.713C383.118 471.776 381.77 471.184 380.34 471.012C378.909 470.84 377.46 471.095 376.175 471.747C374.89 472.398 373.827 473.415 373.12 474.67C372.414 475.925 372.096 477.361 372.206 478.796C372.316 480.232 372.85 481.603 373.74 482.735C374.63 483.868 375.835 484.711 377.205 485.159C377.312 485.194 377.42 485.226 377.529 485.256Z" fill="white"/>
<path d="M379.705 482.613C381.089 482.613 382.211 481.492 382.211 480.109C382.211 478.726 381.089 477.605 379.705 477.605C378.321 477.605 377.199 478.726 377.199 480.109C377.199 481.492 378.321 482.613 379.705 482.613Z" fill="#3F3D56"/>
<path d="M394.875 476.244C395.069 475.305 395.467 474.42 396.04 473.651C396.614 472.883 397.35 472.249 398.195 471.796C399.041 471.342 399.976 471.08 400.934 471.027C401.892 470.975 402.85 471.133 403.74 471.49C404.188 470.122 404.22 468.652 403.831 467.265C403.443 465.878 402.652 464.638 401.558 463.701C400.464 462.764 399.117 462.172 397.686 462C396.256 461.828 394.806 462.084 393.521 462.735C392.236 463.386 391.173 464.403 390.467 465.658C389.76 466.913 389.442 468.349 389.552 469.785C389.663 471.22 390.196 472.591 391.086 473.723C391.976 474.856 393.182 475.699 394.551 476.147C394.658 476.182 394.766 476.214 394.875 476.244Z" fill="white"/>
<path d="M397.971 473.462C399.355 473.462 400.477 472.341 400.477 470.958C400.477 469.574 399.355 468.453 397.971 468.453C396.587 468.453 395.465 469.574 395.465 470.958C395.465 472.341 396.587 473.462 397.971 473.462Z" fill="#3F3D56"/>
<path d="M410.547 470.784L401.991 479.497L402.855 480.344L411.411 471.631L410.547 470.784Z" fill="white"/>
<path d="M413.266 475L402.928 481.504L403.573 482.527L413.911 476.023L413.266 475Z" fill="white"/>
<path d="M383.635 489.34L371.639 491.648L371.868 492.835L383.864 490.527L383.635 489.34Z" fill="white"/>
<path d="M384.79 491.23L373.652 496.242L374.149 497.345L385.287 492.332L384.79 491.23Z" fill="white"/>
<path d="M31.5364 305.235C8.07232 284.133 -6.13537 250.575 2.59598 220.261C22.3004 248.352 51.3127 268.572 84.5 277.345C97.3112 280.682 111.908 283.06 119.702 293.754C124.552 300.408 125.678 309.202 124.53 317.353C123.382 325.505 120.173 333.203 116.994 340.797L117.162 342.845C86.1756 336.82 55.0004 326.338 31.5364 305.235Z" fill="#E6E6E6"/>
<path d="M3.2514 220.357C9.21498 245.496 23.2541 268.894 42.9533 285.685C47.2122 289.316 51.8487 292.628 57.0496 294.77C62.1352 296.818 67.6769 297.468 73.099 296.653C78.1699 295.994 83.2804 294.733 88.4233 295.317C93.8441 295.933 98.3729 298.968 101.537 303.339C105.408 308.686 107.125 315.105 108.586 321.44C110.208 328.474 111.782 335.806 116.429 341.554C116.992 342.251 115.878 343.083 115.315 342.388C107.23 332.386 108.336 318.541 102.48 307.489C99.7478 302.332 95.4436 297.967 89.5153 296.883C84.3313 295.936 79.0601 297.232 73.9315 297.943C68.5464 298.69 63.3364 298.51 58.17 296.686C52.8852 294.821 48.1093 291.683 43.7762 288.177C34.0096 280.155 25.5661 270.647 18.7549 260.004C10.914 247.899 5.20295 234.544 1.86887 220.515C1.66286 219.647 3.04675 219.494 3.2514 220.357Z" fill="white"/>
<path d="M36.262 280.565C32.9463 283.492 28.6974 285.145 24.2742 285.231C19.8509 285.316 15.5413 283.827 12.115 281.031C11.4237 280.462 12.2749 279.362 12.9672 279.931C16.1529 282.541 20.1675 283.928 24.2862 283.84C28.405 283.752 32.3566 282.196 35.428 279.452C36.0961 278.857 36.9263 279.973 36.262 280.565Z" fill="white"/>
<path d="M70.5719 297.325C71.2118 288.31 68.428 279.386 62.7756 272.331C62.215 271.633 63.3293 270.8 63.8892 271.498C69.7575 278.85 72.6356 288.143 71.9491 297.523C71.8831 298.417 70.5062 298.214 70.5719 297.325Z" fill="white"/>
<path d="M12.7335 247.595C14.2525 246.73 15.5328 245.501 16.4591 244.019C17.3855 242.537 17.9291 240.848 18.041 239.105C18.0956 238.21 19.4725 238.414 19.4181 239.302C19.2855 241.228 18.683 243.092 17.6631 244.732C16.6432 246.371 15.2371 247.736 13.5675 248.708C13.4178 248.812 13.2338 248.856 13.0529 248.83C12.872 248.804 12.7078 248.711 12.5937 248.568C12.484 248.42 12.4371 248.235 12.4633 248.053C12.4895 247.87 12.5866 247.706 12.7335 247.595Z" fill="white"/>
<path d="M100.587 177.614C100.569 178.173 100.55 178.733 100.542 179.299C100.335 186.821 100.741 194.348 101.754 201.804C101.823 202.382 101.902 202.967 101.988 203.541C104.621 221.479 110.564 238.773 119.515 254.544C123.083 260.816 127.122 266.808 131.6 272.467C137.783 280.283 145.11 288.266 148.257 297.398C148.596 298.347 148.875 299.316 149.094 300.3L119.649 342.481C119.534 342.543 119.428 342.613 119.313 342.675L118.215 344.413C117.963 344.138 117.708 343.846 117.457 343.57C117.311 343.411 117.171 343.242 117.024 343.083C116.929 342.974 116.834 342.864 116.741 342.771C116.709 342.735 116.678 342.698 116.655 342.668C116.563 342.575 116.487 342.479 116.404 342.393C114.976 340.768 113.556 339.13 112.146 337.479C112.136 337.472 112.136 337.472 112.133 337.456C101.418 324.851 91.6627 311.241 84.2843 296.584C84.0625 296.143 83.8307 295.695 83.6223 295.235C80.3332 288.61 77.5914 281.727 75.4244 274.656C74.2503 270.78 73.2733 266.847 72.4971 262.872C70.5114 252.599 70.1552 242.077 71.4415 231.692C74.0089 210.992 83.1729 191.342 99.342 178.577C99.7558 178.251 100.163 177.933 100.587 177.614Z" fill="#E6E6E6"/>
<path d="M101.057 178.082C90.672 201.742 87.7842 228.87 93.3959 254.13C94.6091 259.59 96.3155 265.025 99.1779 269.864C102.004 274.559 106.037 278.412 110.858 281.023C115.304 283.548 120.144 285.616 123.898 289.176C127.855 292.929 129.642 298.078 129.535 303.471C129.404 310.069 126.908 316.227 124.258 322.165C121.315 328.757 118.154 335.558 118.401 342.943C118.431 343.838 117.04 343.832 117.01 342.939C116.58 330.089 125.805 319.7 127.788 307.352C128.714 301.591 127.907 295.515 123.826 291.084C120.258 287.209 115.268 285.072 110.745 282.554C105.995 279.911 101.944 276.632 98.9176 272.068C95.8217 267.399 93.8992 262.02 92.5516 256.614C89.5871 244.333 88.5736 231.662 89.548 219.065C90.5804 204.683 94.0671 190.584 99.8574 177.377C100.216 176.559 101.413 177.27 101.057 178.082Z" fill="white"/>
<path d="M91.1383 246.015C86.7275 246.357 82.3387 245.121 78.7555 242.528C75.1724 239.935 72.6283 236.154 71.5776 231.86C71.368 230.99 72.7106 230.624 72.9205 231.494C73.8915 235.495 76.2616 239.017 79.6032 241.425C82.9447 243.833 87.0375 244.968 91.1429 244.625C92.0352 244.552 92.0255 245.942 91.1383 246.015Z" fill="white"/>
<path d="M108.435 280.04C114.377 273.227 117.531 264.426 117.269 255.393C117.242 254.498 118.633 254.504 118.66 255.398C118.916 264.798 115.615 273.95 109.415 281.026C108.824 281.7 107.847 280.71 108.435 280.04Z" fill="white"/>
<path d="M92.2166 205.535C93.9508 205.758 95.7133 205.547 97.3458 204.921C98.9783 204.295 100.43 203.274 101.57 201.949C102.152 201.268 103.129 202.259 102.55 202.935C101.284 204.393 99.6797 205.519 97.8775 206.215C96.0754 206.91 94.1302 207.154 92.212 206.925C92.0293 206.919 91.856 206.843 91.7272 206.714C91.5984 206.584 91.5239 206.41 91.5186 206.228C91.5201 206.044 91.5943 205.868 91.725 205.738C91.8557 205.608 92.0323 205.535 92.2166 205.535Z" fill="white"/>
<path d="M369.574 180.427C373.664 157.82 366.866 132.168 348.31 118.607C349.503 143.561 341.824 168.133 326.633 187.975C320.746 195.606 313.404 203.48 313.69 213.111C313.867 219.104 317.144 224.668 321.443 228.85C325.742 233.031 331.025 236.033 336.245 238.988L337.063 240.242C352.213 222.963 365.483 203.034 369.574 180.427Z" fill="#E6E6E6"/>
<path d="M347.975 118.954C355.839 136.269 358.043 155.621 354.275 174.26C353.535 178.287 352.164 182.172 350.214 185.772C348.2 189.218 345.3 192.063 341.814 194.01C338.601 195.89 335.095 197.442 332.395 200.071C331.033 201.436 329.975 203.075 329.291 204.878C328.607 206.681 328.312 208.608 328.426 210.533C328.584 215.337 330.46 219.798 332.446 224.096C334.652 228.869 337.018 233.791 336.908 239.172C336.895 239.824 337.908 239.807 337.921 239.156C338.112 229.794 331.296 222.316 329.735 213.343C329.006 209.156 329.536 204.725 332.466 201.459C335.028 198.603 338.641 197 341.911 195.124C345.339 193.274 348.262 190.614 350.424 187.375C352.552 183.886 354.07 180.06 354.913 176.061C356.955 167.09 357.573 157.853 356.744 148.689C355.856 138.226 353.183 127.991 348.841 118.429C348.572 117.837 347.708 118.366 347.975 118.954Z" fill="white"/>
<path d="M355.842 168.33C359.057 168.537 362.242 167.595 364.826 165.673C367.411 163.751 369.228 160.973 369.952 157.836C370.096 157.201 369.115 156.947 368.971 157.583C368.302 160.505 366.609 163.093 364.198 164.878C361.788 166.663 358.818 167.528 355.825 167.317C355.175 167.272 355.195 168.285 355.842 168.33Z" fill="white"/>
<path d="M343.569 193.27C339.177 188.366 336.797 181.987 336.903 175.406C336.913 174.754 335.9 174.771 335.889 175.423C335.792 182.271 338.283 188.904 342.864 193.998C343.302 194.483 344.004 193.753 343.569 193.27Z" fill="white"/>
<path d="M354.673 138.861C353.412 139.04 352.126 138.903 350.932 138.463C349.737 138.023 348.67 137.293 347.828 136.339C347.397 135.848 346.695 136.579 347.123 137.066C348.059 138.116 349.238 138.921 350.557 139.41C351.876 139.9 353.295 140.059 354.689 139.874C354.822 139.867 354.948 139.811 355.04 139.715C355.133 139.62 355.186 139.492 355.188 139.359C355.185 139.225 355.129 139.098 355.033 139.005C354.936 138.911 354.807 138.86 354.673 138.861Z" fill="white"/>
<path d="M272.859 137.726C273.119 138.04 273.379 138.354 273.637 138.677C277.113 142.915 280.239 147.429 282.983 152.174C283.202 152.537 283.417 152.909 283.624 153.278C290.114 164.779 294.412 177.385 296.297 190.453C297.042 195.654 297.391 200.905 297.339 206.158C297.267 213.414 296.612 221.276 298.876 227.935C299.105 228.633 299.376 229.315 299.689 229.979L335.468 241.141C335.562 241.126 335.654 241.119 335.748 241.103L337.157 241.614C337.178 241.343 337.195 241.062 337.216 240.791C337.23 240.634 337.235 240.475 337.248 240.318C337.254 240.212 337.26 240.107 337.272 240.012C337.274 239.977 337.276 239.942 337.276 239.915C337.287 239.82 337.288 239.73 337.297 239.644C337.394 238.072 337.48 236.496 337.556 234.917C337.558 234.909 337.558 234.909 337.553 234.898C338.095 222.866 337.638 210.682 335.344 198.955C335.275 198.602 335.208 198.241 335.123 197.884C334.06 192.603 332.566 187.419 330.658 182.382C329.604 179.627 328.411 176.927 327.084 174.293C323.642 167.493 319.15 161.276 313.775 155.871C303.058 145.097 289.012 137.869 274.005 137.726C273.621 137.723 273.245 137.722 272.859 137.726Z" fill="#E6E6E6"/>
<path d="M272.797 138.205C289.509 147.299 302.929 161.424 311.15 178.574C312.985 182.234 314.231 186.161 314.843 190.209C315.312 194.172 314.709 198.188 313.099 201.84C311.667 205.275 309.803 208.623 309.231 212.346C308.966 214.256 309.109 216.2 309.649 218.052C310.189 219.903 311.115 221.619 312.365 223.088C315.386 226.828 319.571 229.261 323.747 231.498C328.384 233.982 333.239 236.489 336.393 240.851C336.775 241.38 337.574 240.756 337.192 240.228C331.704 232.639 321.756 230.769 315.103 224.544C311.999 221.639 309.752 217.782 310.123 213.412C310.448 209.59 312.367 206.137 313.848 202.671C315.471 199.132 316.202 195.249 315.977 191.362C315.573 187.296 314.48 183.328 312.745 179.628C308.97 171.236 303.898 163.489 297.715 156.671C290.701 148.851 282.401 142.288 273.173 137.265C272.601 136.954 272.23 137.897 272.797 138.205Z" fill="white"/>
<path d="M308.828 172.896C311.52 171.127 313.495 168.46 314.401 165.37C315.306 162.28 315.083 158.969 313.771 156.028C313.504 155.434 312.567 155.822 312.835 156.416C314.062 159.153 314.269 162.237 313.42 165.112C312.571 167.988 310.721 170.465 308.205 172.098C307.658 172.453 308.284 173.249 308.828 172.896Z" fill="white"/>
<path d="M314.055 200.194C307.594 198.92 301.85 195.259 297.969 189.941C297.585 189.414 296.787 190.037 297.17 190.564C301.219 196.09 307.204 199.888 313.931 201.199C314.572 201.323 314.693 200.317 314.055 200.194Z" fill="white"/>
<path d="M290.14 150.071C289.241 150.972 288.132 151.636 286.913 152.004C285.693 152.371 284.402 152.43 283.154 152.175C282.515 152.042 282.395 153.048 283.03 153.18C284.41 153.455 285.836 153.388 287.184 152.985C288.532 152.583 289.761 151.856 290.763 150.869C290.865 150.784 290.931 150.663 290.947 150.531C290.964 150.399 290.929 150.266 290.851 150.159C290.768 150.053 290.646 149.985 290.513 149.969C290.38 149.952 290.246 149.989 290.14 150.071Z" fill="white"/>
<path d="M90.0906 259.239C95.044 259.239 99.7945 261.205 103.297 264.705C106.8 268.205 108.767 272.953 108.767 277.902C108.767 282.232 107.26 286.426 104.505 289.768C101.751 293.11 97.9192 295.391 93.667 296.22V326.745H81.7456V259.239H90.0906Z" fill="#3F3D56"/>
<path d="M547.572 438.05V444.441C544.861 447.905 542.068 451.299 539.192 454.625C538.884 454.989 538.568 455.345 538.245 455.709C537.758 456.278 537.257 456.84 536.756 457.403V438.05H547.572Z" fill="#CACACA"/>
<path d="M515.839 424.718C513.448 424.721 511.156 425.671 509.465 427.361C507.775 429.05 506.824 431.34 506.821 433.729V446.698C506.824 449.087 507.775 451.377 509.465 453.066C511.156 454.756 513.448 455.706 515.839 455.709H538.245C538.568 455.345 538.884 454.989 539.192 454.625C542.068 451.299 544.861 447.905 547.572 444.441C547.75 444.215 547.929 443.989 548.1 443.762C549.651 441.78 551.175 439.764 552.671 437.734C553.838 436.143 554.997 434.539 556.13 432.92C556.137 432.913 556.144 432.913 556.144 432.906C558.038 430.218 559.884 427.489 561.682 424.718H515.839Z" fill="#3F3D56"/>
<path d="M573.534 313.717C572.156 313.242 570.709 313.001 569.251 313.004H565.566C564.224 313.005 562.889 313.206 561.606 313.6C558.9 314.45 556.536 316.14 554.857 318.424C553.177 320.707 552.27 323.467 552.266 326.301V434.484C552.266 434.888 552.287 435.286 552.321 435.677C552.381 436.371 552.498 437.059 552.671 437.734C553.838 436.143 554.997 434.539 556.13 432.92C556.137 432.913 556.144 432.913 556.144 432.906C558.038 430.218 559.884 427.489 561.682 424.718C562.649 423.23 563.61 421.728 564.55 420.219C571.344 409.327 577.362 397.97 582.558 386.232V326.301C582.555 323.525 581.684 320.819 580.065 318.563C578.447 316.306 576.163 314.612 573.534 313.717Z" fill="#3F3D56"/>
<path d="M119.315 438.05V450.963C116.227 447.274 113.242 443.502 110.359 439.648C109.961 439.12 109.57 438.585 109.179 438.05H119.315Z" fill="#CACACA"/>
<path d="M140.233 424.718H99.9279C101.198 426.673 102.49 428.604 103.805 430.513C105.549 433.057 107.34 435.57 109.179 438.05C109.57 438.585 109.961 439.12 110.359 439.648C113.249 443.502 116.234 447.274 119.315 450.963C119.892 451.663 120.475 452.355 121.065 453.048C121.82 453.939 122.586 454.826 123.364 455.709H140.233C142.623 455.706 144.914 454.755 146.604 453.066C148.293 451.376 149.242 449.086 149.244 446.698V433.729C149.242 431.341 148.293 429.051 146.604 427.361C144.914 425.672 142.623 424.721 140.233 424.718Z" fill="#3F3D56"/>
<path d="M96.6475 314.506C94.7474 313.521 92.6388 313.006 90.4985 313.004H86.8201C85.0795 313.001 83.3557 313.344 81.7485 314.012C79.3136 315.017 77.2316 316.721 75.7657 318.908C74.2999 321.096 73.516 323.668 73.5132 326.301V372.777C80.4425 390.981 89.2976 408.393 99.9279 424.718C101.198 426.673 102.49 428.604 103.805 430.513V326.301C103.804 323.869 103.136 321.484 101.874 319.405C100.612 317.326 98.8045 315.631 96.6475 314.506Z" fill="#3F3D56"/>
<path d="M246.574 515.36L258.664 512.588L253.718 464.671L235.875 468.763L246.574 515.36Z" fill="#9E616A"/>
<path d="M257.572 473.786C257.325 472.942 257.157 472.076 257.071 471.201C256.971 470.166 256.769 469.144 256.467 468.149C256.124 467.244 255.699 466.372 255.198 465.543C254.958 465.104 254.704 464.665 254.477 464.219C254.249 463.774 254.052 463.313 253.887 462.841C246.812 441.959 236.936 413.581 230.087 396.971C226.059 387.199 201.284 383.948 177.909 383.118C175.061 383.016 172.234 382.947 169.468 382.913C168.514 382.899 167.567 382.885 166.627 382.878C164.225 382.865 161.885 382.865 159.634 382.892C159.339 382.892 159.044 382.892 158.749 382.899C157.108 382.913 155.519 382.936 153.979 382.968C143.397 383.173 135.621 383.653 134.235 383.742L121.889 375.986L119.48 374.471L119.226 375.986L117.284 387.549L113.969 407.279L122.28 409.61L127.674 411.119L159.634 420.075L166.428 421.982L166.469 421.996L177.909 421.975L209.19 421.92L210.7 425.918C210.158 426.76 209.801 427.707 209.653 428.697C209.506 429.686 209.571 430.696 209.844 431.659C210.118 432.622 210.593 433.515 211.238 434.28C211.884 435.045 212.685 435.664 213.589 436.095L214.762 436.651L229.058 474.451C229.101 477.871 230.17 481.198 232.125 484.004C232.365 484.354 232.626 484.697 232.901 485.033L233.216 485.41L238.713 496.156L241.987 495.402L255.918 492.213L255.987 492.076C255.994 492.055 256.172 491.678 256.433 491.02V490.999C257.524 488.277 259.94 480.836 257.572 473.786Z" fill="#2F2E41"/>
<path d="M291.536 518.547C291.016 516.244 290.044 514.066 288.678 512.139C287.312 510.212 285.578 508.574 283.575 507.32C281.573 506.065 279.342 505.219 277.011 504.83C274.681 504.44 272.296 504.516 269.994 505.051L260.338 500.696L257.634 502.596L246.42 510.455L245.494 510.668L242.488 511.354L246.64 529.438L291.673 519.117L291.536 518.547Z" fill="#2F2E41"/>
<path d="M231.803 490.663L227.719 523.746L227.582 524.829L226.978 529.76C224.624 528.8 222.277 527.805 219.958 526.784C217.789 525.83 215.636 524.847 213.5 523.835V490.67L231.803 490.663Z" fill="#9E616A"/>
<path d="M143.195 263.235C156.867 263.235 167.951 252.159 167.951 238.496C167.951 224.833 156.867 213.758 143.195 213.758C129.522 213.758 118.438 224.833 118.438 238.496C118.438 252.159 129.522 263.235 143.195 263.235Z" fill="#9E616A"/>
<path d="M234.431 503.289C233.745 502.349 233.031 501.368 232.99 500.429C232.832 497.117 232.667 493.839 232.496 490.629C232.372 488.387 232.249 486.171 232.125 484.004C232.112 483.73 232.091 483.456 232.077 483.188C231.864 479.602 232.928 475.816 233.951 472.147C234.287 470.947 234.623 469.733 234.925 468.519C235.68 465.814 235.998 463.006 235.865 460.201C234.109 437.988 226.258 417.099 222.737 413.581C217.384 408.232 193.179 395.874 177.909 388.358C175.199 387.021 172.769 385.841 170.779 384.881C169.015 384.024 167.595 383.345 166.627 382.878C165.886 382.529 165.406 382.302 165.241 382.22L165.158 382.179L159.634 382.796L158.749 382.899L153.876 383.448L122.177 387L117.284 387.549L110.359 388.33L104.107 389.03L103.874 389.05L103.833 389.284C103.833 389.29 103.819 389.339 103.805 389.428C102.73 396.207 102.73 403.113 103.805 409.892C104.615 414.493 106.146 419.17 108.863 423.107C109.234 423.641 109.618 424.156 110.03 424.65C110.044 424.676 110.062 424.699 110.085 424.718C110.174 424.828 110.263 424.938 110.359 425.047V425.054C113.468 428.667 117.64 431.204 122.28 432.303C122.966 432.488 123.666 432.639 124.387 432.762C132.066 434.12 140.741 435.368 149.244 436.466C152.764 436.918 156.257 437.343 159.634 437.741C166.394 438.537 172.707 439.209 177.909 439.744C185.198 440.484 190.317 440.944 191.457 441.04L204.187 500.388C203.188 502.076 202.789 504.053 203.056 505.996C203.323 507.939 204.239 509.735 205.656 511.093L206.699 512.101L207.907 517.752L211.887 523.074L212.388 523.746H229.95L230.046 523.629C230.108 523.547 236.284 515.619 235.865 506.176C235.824 505.202 235.145 504.276 234.431 503.289Z" fill="#2F2E41"/>
<path d="M233.952 304.387C232.622 304.023 231.228 303.956 229.869 304.189C228.511 304.422 227.219 304.95 226.087 305.736C224.954 306.521 224.008 307.546 223.314 308.736C222.621 309.927 222.197 311.255 222.072 312.627L201.503 319.051L202.361 332.495L231.282 323.015C233.602 323.071 235.863 322.274 237.635 320.776C239.407 319.278 240.567 317.182 240.896 314.886C241.226 312.59 240.7 310.253 239.42 308.318C238.14 306.383 236.195 304.984 233.952 304.387Z" fill="#9E616A"/>
<path d="M220.531 326.633L205.158 332.447L204.764 333.209C204.298 334.114 203.657 334.918 202.88 335.575C202.102 336.233 201.203 336.73 200.232 337.04C199.262 337.35 198.241 337.466 197.226 337.382C196.211 337.297 195.222 337.014 194.317 336.547L159.763 349.616C159.763 349.616 144.331 334.185 133.345 320.413L137.089 297.399C137.957 292.059 139.8 286.925 142.527 282.251C165.058 287.189 177.992 318.663 177.992 318.663L218.599 310.92L220.531 326.633Z" fill="#6C63FF"/>
<path d="M139.677 261.912C133.479 263.585 126.646 261.361 121.81 257.143C116.973 252.924 113.947 246.947 112.204 240.773C110.927 236.251 110.322 231.232 112.337 226.987C114.351 222.742 119.774 219.878 123.957 222.022C121.377 219.017 122.666 214.048 125.68 211.478C128.694 208.907 132.833 208.17 136.775 207.767C142.496 207.183 148.405 207.117 153.849 208.969C159.292 210.821 164.239 214.871 165.942 220.359C167.682 221.169 169.642 221.379 171.514 220.956C173.387 220.534 175.066 219.503 176.289 218.025C176.604 219.722 176.351 221.476 175.568 223.016C174.785 224.555 173.517 225.794 171.959 226.54L180.3 223.838C181.734 226.872 179.22 230.627 176.006 231.599C172.792 232.57 169.322 231.508 166.272 230.105C163.222 228.701 160.266 226.926 156.953 226.379C153.64 225.831 149.748 226.895 148.216 229.881C147.413 231.445 147.371 233.276 146.905 234.971C146.439 236.666 145.259 238.423 143.505 238.562C142.398 238.649 141.313 238.06 140.208 238.18C139.531 238.314 138.906 238.642 138.412 239.124C137.918 239.607 137.575 240.223 137.426 240.897C137.151 242.25 137.148 243.644 137.416 244.998L139.535 261.181L139.677 261.912Z" fill="#2F2E41"/>
<path d="M170.779 384.881L169.468 382.913L159.902 368.573L159.709 368.292L162.667 352.958L163.587 348.171L165.598 337.754L165.014 313.909L164.596 297.039L164.534 294.391L162.413 287.931C161.408 284.91 159.793 282.128 157.668 279.756C155.543 277.383 152.954 275.472 150.06 274.14L135.786 267.612C134.106 266.847 132.191 266.781 130.462 267.428C128.734 268.074 127.333 269.381 126.568 271.06C126.504 271.2 126.445 271.342 126.391 271.486C124.435 271.754 115.946 273.18 108.747 278.762C103.703 282.597 100.183 288.093 98.8093 294.275C98.7956 294.323 98.7887 294.371 98.775 294.419C97.8211 298.678 97.1073 305.398 96.6475 314.506C96.3387 320.527 96.1443 327.581 96.0642 335.669C95.9361 349.15 96.6949 362.625 98.3358 376.007C98.4936 377.282 98.6583 378.551 98.8299 379.827C98.974 380.896 100.003 381.918 100.999 382.899C101.911 383.797 102.851 384.73 102.982 385.573C103.099 386.314 102.625 387.089 102.062 387.898C101.994 388.001 101.918 388.104 101.849 388.207C101.149 389.201 100.429 390.237 100.614 391.327C101.047 393.782 101.3 396.279 101.541 398.693C101.809 402.016 102.29 405.319 102.982 408.582C103.222 409.583 103.497 410.591 103.805 411.599C104.526 413.965 105.398 416.324 106.249 418.628C106.983 420.631 107.745 422.688 108.39 424.718C108.513 425.095 108.63 425.466 108.74 425.836L108.795 426.028L108.994 426.062H109.007C109.278 425.581 109.6 425.13 109.968 424.718C109.985 424.692 110.006 424.669 110.03 424.65C110.126 424.533 110.236 424.41 110.359 424.279C111.862 422.64 115.129 419.698 122.28 414.74C123.879 413.636 125.67 412.436 127.674 411.119C135.024 406.312 145.291 400.05 159.634 391.965C163.23 389.935 167.089 387.789 171.211 385.525L170.779 384.881Z" fill="#6C63FF"/>
<path d="M247.759 535.74C246.092 534.067 244.11 532.741 241.927 531.839C239.744 530.936 237.404 530.474 235.042 530.48L227.582 524.829L226.601 524.082L219.958 526.784C222.277 527.805 224.624 528.8 226.978 529.76C234.342 532.764 241.861 535.447 249.536 537.811C248.997 537.077 248.402 536.385 247.759 535.74Z" fill="#2F2E41"/>
<path d="M413.447 514.893L404.104 510.428L416.938 471.404L430.727 477.994L413.447 514.893Z" fill="#FFB6B6"/>
<path d="M476.083 508.603C473.365 510.297 470.613 511.943 467.827 513.541V513.562L467.785 513.569L467.772 513.575L466.715 513.836L465.198 509.831L461.698 500.593L452.159 475.425L466.989 471.77L467.827 475.165L474.099 500.587L475.897 507.856L476.083 508.603Z" fill="#FFB6B6"/>
<path d="M438.259 345.276C439.591 347.438 441.717 348.995 444.182 349.613C446.647 350.231 449.257 349.861 451.453 348.584C451.895 348.316 452.314 348.013 452.705 347.677L482.243 364.616L480.96 347.228L453.107 333.808C451.591 332.287 449.614 331.311 447.483 331.034C445.353 330.756 443.191 331.193 441.336 332.276C439.213 333.55 437.683 335.615 437.083 338.016C436.483 340.417 436.863 342.958 438.137 345.08C438.177 345.146 438.217 345.211 438.259 345.276Z" fill="#FFB6B6"/>
<path d="M469.544 358.237L474.765 361.417L498.215 375.706C499.754 376.669 501.468 377.319 503.258 377.619C505.049 377.92 506.881 377.865 508.651 377.458C510.42 377.05 512.092 376.299 513.571 375.246C515.05 374.194 516.306 372.86 517.269 371.322L517.277 371.31C519.013 368.451 519.628 365.051 519.002 361.766L508.579 309.733C508.194 307.691 507.372 305.755 506.17 304.059C504.967 302.363 503.413 300.947 501.612 299.906C499.811 298.866 497.807 298.227 495.736 298.032C493.665 297.837 491.576 298.091 489.613 298.777C486.313 299.936 483.578 302.308 481.966 305.41C480.353 308.512 479.984 312.112 480.933 315.476L491.832 352.403L475.126 344.62L469.544 358.237Z" fill="#6C63FF"/>
<path d="M565.696 409.542C565.69 409.521 565.676 409.446 565.655 409.329L565.635 409.254C565.587 409.007 565.532 408.732 565.47 408.431C564.07 401.482 562.271 394.62 560.083 387.878C558.786 383.749 557.068 379.764 554.956 375.986C554.888 375.863 554.812 375.739 554.737 375.616L554.483 375.204L552.348 375.986L552.266 376.014L519.819 387.898L510.438 391.334L510.142 391.444L508.543 397.959L486.109 395.058L467.827 392.692L462.577 392.013C460.301 391.717 457.989 391.876 455.775 392.481C453.561 393.086 451.49 394.125 449.682 395.538C447.795 397 446.218 398.822 445.043 400.899C443.869 402.976 443.119 405.266 442.839 407.635C442.771 408.156 442.73 408.684 442.709 409.206L441.124 468.3V468.375L441.858 469.843L457.196 500.593H467.827L474.099 500.587H479.198L468.595 473.779L468.835 473.416C469.833 471.888 470.462 470.149 470.673 468.336C470.884 466.524 470.67 464.687 470.05 462.971L471.244 459.515C473.722 452.376 472.548 448.947 471.066 444.613C469.734 441.089 468.952 437.381 468.746 433.62L468.499 428.73C474.724 429.82 480.523 431.034 486.109 432.255C487.976 432.66 489.824 433.069 491.654 433.483C496.863 434.641 501.893 435.759 506.821 436.692C516.799 438.592 526.359 439.751 536.18 439.031C536.372 439.017 536.564 439.003 536.756 438.983C539.144 438.791 541.546 438.482 543.976 438.05C545.342 437.803 546.714 437.522 548.1 437.193C548.485 437.097 548.876 437.001 549.26 436.905C550.327 436.623 551.355 436.211 552.321 435.677C553.694 434.911 554.973 433.985 556.13 432.92C556.137 432.913 556.144 432.913 556.144 432.906C558.038 430.218 559.884 427.489 561.682 424.718C562.649 423.23 563.61 421.728 564.55 420.219C565.923 416.454 566.444 412.655 565.696 409.542Z" fill="#2F2E41"/>
<path d="M565.923 398.439C565.82 398 565.69 397.554 565.552 397.122C564.463 393.85 563.194 390.64 561.75 387.507C560.131 383.941 558.189 380.122 555.876 375.986C554.757 373.984 553.554 371.901 552.266 369.739C551.621 368.655 550.951 367.551 550.255 366.426C550.228 366.375 550.198 366.324 550.166 366.276L549.967 365.946L517.863 370.239L505.908 371.837L505.194 377.79L505.023 379.264C505.016 379.264 505.016 379.264 505.023 379.271L504.542 383.29V383.297L503.904 388.605L503.849 388.598L486.109 386.3L467.827 383.935L458.006 382.666C455.73 382.369 453.418 382.528 451.204 383.134C448.99 383.739 446.919 384.778 445.111 386.191C443.224 387.653 441.647 389.475 440.473 391.552C439.298 393.629 438.549 395.919 438.269 398.288C438.207 398.768 438.166 399.262 438.145 399.749L428.88 421.687C423.337 434.807 419.806 448.688 418.408 462.862L411.614 484.567L412.581 484.656L426.98 485.993L430.781 486.35L439.154 474.136C440.108 472.744 441.014 471.31 441.858 469.843C443.248 467.446 444.483 464.963 445.557 462.409L463.668 419.342C465.068 419.582 466.454 419.81 467.827 420.027C474.175 421.056 480.269 421.895 486.109 422.544C505.098 424.663 521.541 424.828 536.18 423.031C540.291 422.531 544.264 421.872 548.1 421.056C549.507 420.761 550.896 420.443 552.266 420.103C552.589 420.027 552.904 419.952 553.22 419.87C556.056 419.139 558.664 417.709 560.804 415.71C562.944 413.712 564.548 411.209 565.47 408.431C566.57 405.211 566.728 401.745 565.923 398.439Z" fill="#2F2E41"/>
<path d="M497.655 268.915C509.92 268.915 519.862 258.758 519.862 246.229C519.862 233.701 509.92 223.544 497.655 223.544C485.391 223.544 475.449 233.701 475.449 246.229C475.449 258.758 485.391 268.915 497.655 268.915Z" fill="#FFB6B6"/>
<path d="M550.386 367.188C550.351 366.934 550.31 366.68 550.255 366.426C549.727 363.642 548.354 360.913 547.03 358.266C545.767 355.742 544.566 353.355 544.072 350.983C543.585 348.644 543.873 346.299 544.154 344.036C544.456 341.58 544.772 339.043 544.065 336.581C540.48 324.008 535.556 311.855 529.379 300.33C527.82 295.263 524.832 290.752 520.772 287.339C516.713 283.926 511.754 281.755 506.491 281.087C507.106 279.941 507.362 278.636 507.226 277.343C507.14 276.507 506.889 275.697 506.487 274.959C506.085 274.22 505.541 273.569 504.886 273.043C504.256 272.536 503.532 272.159 502.756 271.933C501.98 271.707 501.167 271.637 500.363 271.726L490.041 272.885C488.387 273.093 486.881 273.945 485.851 275.256C484.822 276.567 484.352 278.232 484.544 279.887C484.602 280.397 484.717 280.898 484.888 281.382C475.307 293.575 470.387 304.685 469.934 315.191V315.198C469.879 316.412 469.885 317.627 469.954 318.84C470.171 322.762 471.024 326.623 472.48 330.272C474.198 334.487 476.499 338.441 479.315 342.019C479.891 342.746 480.488 343.459 481.106 344.159C481.683 344.845 482.328 345.565 483.041 346.319L484.846 349.145L486.528 351.785L495.518 372.516L500.095 372.365L500.734 376.926L500.885 377.989L503.849 388.598L504.069 389.393L508.125 387.466L532.323 375.986L550.413 367.4L550.386 367.188Z" fill="#6C63FF"/>
<path opacity="0.2" d="M472.751 330.162C474.815 335.212 477.715 339.879 481.331 343.965C481.95 344.704 482.604 345.43 483.289 346.157L486.802 351.665C499.751 341.966 510.243 303.775 510.243 303.775L495.632 300.935L472.751 330.162Z" fill="black"/>
<path d="M463.906 271.034C465.185 273.23 465.557 275.839 464.941 278.304C464.325 280.77 462.771 282.898 460.609 284.236C460.165 284.501 459.701 284.729 459.219 284.917L460.253 318.934L445.512 309.661L446.79 278.78C446.162 276.725 446.234 274.52 446.992 272.51C447.751 270.499 449.154 268.796 450.983 267.667C453.097 266.389 455.632 266.002 458.032 266.592C460.431 267.183 462.497 268.701 463.776 270.814C463.82 270.887 463.864 270.96 463.906 271.034Z" fill="#FFB6B6"/>
<path d="M461.549 306.094L445.338 308.398L446.035 341.945C446.075 344.338 446.727 346.681 447.929 348.752C449.131 350.822 450.843 352.551 452.902 353.774C455.417 355.253 458.345 355.875 461.245 355.546C464.145 355.217 466.859 353.955 468.978 351.95L507.252 315.163C509.945 312.61 511.557 309.123 511.755 305.419C511.954 301.715 510.725 298.076 508.321 295.25C505.966 292.464 502.599 290.727 498.962 290.421C495.325 290.115 491.715 291.266 488.927 293.62C488.818 293.712 488.71 293.805 488.604 293.901C488.226 294.239 487.866 294.597 487.526 294.973L462.254 324.026L461.549 306.094Z" fill="#6C63FF"/>
<path d="M476.494 507.746L475.897 507.856L467.827 509.344L465.198 509.831L461.06 510.592L462.529 516.511C464.292 515.557 466.035 514.577 467.772 513.575L467.785 513.569L467.827 513.562V513.541C470.613 511.95 473.365 510.304 476.083 508.603C476.275 508.487 476.467 508.37 476.659 508.24L476.494 507.746Z" fill="#2F2E41"/>
<path d="M416.431 508.521L406.323 503.68L404.737 502.918L402.205 509.132L384.527 513.02C383.652 513.211 382.862 513.677 382.272 514.349C381.682 515.021 381.322 515.864 381.245 516.755C381.169 517.646 381.379 518.538 381.846 519.301C382.313 520.064 383.012 520.658 383.84 520.996L401.114 528.039L406.597 523.108L405.252 529.726L411.758 532.38L418.888 509.701L416.431 508.521Z" fill="#2F2E41"/>
<path d="M557.079 236.391C553.304 231.992 551.509 226.156 548.492 221.161C545.474 216.166 540.223 211.695 534.675 212.858C530.851 213.659 527.896 217.031 526.4 220.791C524.904 224.55 524.623 228.696 524.361 232.758C524.454 224.411 518.951 216.319 511.37 213.656C503.79 210.993 494.718 213.964 489.955 220.669C487.876 218.744 485.163 217.648 482.329 217.588C479.496 217.529 476.739 218.51 474.581 220.347C470.32 224.152 469.378 231.395 472.511 236.248C475.644 241.102 482.43 242.91 487.41 240.218L489.17 241.836C488.179 245.3 490.101 249.391 493.331 250.694C495.951 251.752 499.649 251.576 500.629 254.323C501.314 256.242 500.033 258.291 498.672 259.766C497.31 261.24 495.693 262.764 495.529 264.804C495.282 267.884 498.467 270.041 501.362 270.691C508.342 272.257 516.087 269.027 520.111 262.871C520.188 262.753 520.273 262.634 520.364 262.515C522.621 259.63 524.266 256.316 525.198 252.775C526.13 249.234 526.33 245.539 525.786 241.918C525.559 240.496 525.787 239.437 526.769 239.1C531.012 237.644 542.899 240.701 546.497 243.463C550.095 246.226 552.976 249.882 556.441 252.823C559.907 255.764 564.323 258.032 568.723 257.231C572.247 256.59 575.245 254.033 577.262 250.949C579.278 247.866 580.438 244.271 581.478 240.699C573.685 245.197 563.02 243.314 557.079 236.391Z" fill="#2F2E41"/>
<path d="M486.106 371.615V502.051C483.622 503.759 481.106 505.421 478.557 507.037V380.263C478.557 376.587 477.322 373.604 475.805 373.597H361.547C360.024 373.604 358.795 376.587 358.789 380.263V548.596C357.265 548.747 355.741 548.891 354.218 549.014C353.587 549.069 352.948 549.117 352.317 549.165C351.953 548.493 351.596 547.814 351.24 547.128V371.615C351.24 370.6 351.281 369.578 351.349 368.57C351.967 360.012 355.035 353.757 358.624 353.743H478.722C479.157 353.746 479.586 353.837 479.985 354.011C482.991 355.286 485.365 360.882 485.962 368.117C486.058 369.27 486.113 370.442 486.106 371.615Z" fill="#E4E4E4"/>
<path d="M302.782 371.615V548.074C302.679 548.239 302.576 548.397 302.473 548.561C299.892 548.301 297.323 548.001 294.766 547.663V380.263C294.766 376.587 293.455 373.604 291.842 373.597H170.57C168.958 373.604 167.647 376.587 167.647 380.263V496.476C164.936 494.48 162.264 492.434 159.631 490.338V371.615C159.631 370.6 159.672 369.578 159.748 368.57C160.4 360.012 163.66 353.757 167.475 353.743H294.937C295.397 353.745 295.851 353.836 296.276 354.011C299.467 355.286 301.992 360.882 302.631 368.117C302.733 369.27 302.782 370.442 302.782 371.615Z" fill="#E4E4E4"/>
<path d="M262.14 312.973L270.087 347.918L275.166 353.476H278.83L263.73 289.941L262.982 300.735V300.742L262.14 312.973Z" fill="#3F3D56"/>
<path d="M288.606 355.262C288.583 355.208 288.553 355.157 288.517 355.111C288.443 354.946 288.338 354.797 288.208 354.672L287.281 353.746L282.409 348.87C282.051 348.521 281.571 348.324 281.07 348.322H281.05L277.612 348.342L274.654 348.363L270.522 348.39L242.385 348.569L223.89 348.685C223.389 348.691 222.911 348.894 222.558 349.249C222.205 349.605 222.005 350.084 222.003 350.585C222.006 350.862 222.066 351.135 222.181 351.387L222.538 352.148L223.286 353.746L224.261 355.838L224.741 356.867C224.894 357.194 225.137 357.471 225.443 357.665C225.748 357.86 226.102 357.963 226.463 357.964H286.863C287.18 357.958 287.492 357.874 287.769 357.719C288.047 357.564 288.282 357.344 288.454 357.077C288.627 356.81 288.731 356.505 288.757 356.188C288.783 355.872 288.731 355.554 288.606 355.262Z" fill="#3F3D56"/>
<path opacity="0.17" d="M224.262 355.836L224.738 356.869C224.893 357.195 225.138 357.471 225.443 357.665C225.748 357.859 226.101 357.963 226.463 357.965H286.865C287.182 357.959 287.494 357.875 287.771 357.721C288.049 357.566 288.284 357.346 288.456 357.079C288.628 356.812 288.731 356.507 288.758 356.19C288.784 355.874 288.731 355.556 288.605 355.264C288.584 355.21 288.554 355.159 288.518 355.114L224.262 355.836Z" fill="black"/>
<path opacity="0.17" d="M262.982 300.735V300.742L275.913 353.476H278.83L263.73 289.941L262.982 300.735Z" fill="black"/>
<path d="M283.266 153.161L281.372 152.907C280.853 152.839 280.327 152.98 279.911 153.298L278.778 154.169L266.171 169.928C265.755 170.25 265.483 170.723 265.416 171.245L264.71 176.608L247.113 310.398C247.051 310.894 247.176 311.395 247.463 311.804L255.754 334.64L256.001 334.997L256.536 335.758C256.812 336.145 257.215 336.421 257.675 336.54L258.876 336.842C259.149 336.91 259.433 336.92 259.71 336.87C259.987 336.82 260.25 336.712 260.482 336.554C260.715 336.397 260.912 336.192 261.058 335.953C261.205 335.714 261.299 335.447 261.333 335.168L263.481 318.86V318.853L264.854 308.388L266.014 299.562V299.555L284.982 155.383C285.051 154.862 284.909 154.336 284.589 153.919C284.27 153.503 283.797 153.23 283.276 153.162L283.266 153.161Z" fill="#3F3D56"/>
<path opacity="0.17" d="M278.775 154.17L255.752 334.643L256.002 334.997L256.536 335.756C256.811 336.143 257.215 336.42 257.675 336.538L258.878 336.84C259.15 336.907 259.434 336.917 259.71 336.867C259.986 336.818 260.249 336.711 260.48 336.553C260.712 336.395 260.908 336.19 261.055 335.951C261.202 335.713 261.298 335.446 261.334 335.168L284.98 155.385C285.049 154.863 284.907 154.335 284.586 153.917C284.265 153.5 283.791 153.226 283.269 153.158L281.37 152.908C281.112 152.873 280.85 152.89 280.599 152.958C280.348 153.025 280.113 153.142 279.908 153.301L278.775 154.17Z" fill="black"/>
<path d="M278.097 159.331L265.879 176.757L251.357 287.169L259.23 302.777L278.097 159.331Z" fill="#6C63FF"/>
<path d="M397.11 312.973L389.162 347.918L384.084 353.476H380.42L395.521 289.941L396.267 300.735V300.742L397.11 312.973Z" fill="#3F3D56"/>
<path d="M435.359 348.685L388.733 348.39L384.595 348.363L381.644 348.342L378.206 348.322H378.178C377.68 348.323 377.201 348.52 376.847 348.87L371.041 354.672C370.913 354.799 370.808 354.947 370.732 355.111C370.696 355.157 370.666 355.208 370.643 355.262C370.517 355.554 370.466 355.872 370.492 356.188C370.518 356.505 370.622 356.81 370.794 357.077C370.967 357.344 371.202 357.564 371.479 357.719C371.757 357.874 372.068 357.958 372.386 357.964H432.785C433.148 357.962 433.503 357.859 433.809 357.665C434.115 357.47 434.359 357.194 434.515 356.867L434.988 355.838L435.963 353.746L437.068 351.387C437.186 351.136 437.247 350.862 437.246 350.585C437.244 350.084 437.044 349.605 436.691 349.249C436.338 348.894 435.86 348.691 435.359 348.685Z" fill="#3F3D56"/>
<path opacity="0.17" d="M434.988 355.836L434.511 356.869C434.356 357.195 434.112 357.471 433.807 357.665C433.502 357.859 433.148 357.963 432.787 357.965H372.385C372.068 357.959 371.756 357.875 371.479 357.721C371.201 357.566 370.966 357.346 370.794 357.079C370.622 356.812 370.518 356.507 370.492 356.19C370.466 355.874 370.519 355.556 370.645 355.264C370.666 355.21 370.696 355.159 370.732 355.114L434.988 355.836Z" fill="black"/>
<path opacity="0.17" d="M396.267 300.735V300.742L383.337 353.476H380.42L395.521 289.941L396.267 300.735Z" fill="black"/>
<path d="M412.135 310.398L393.832 171.245C393.765 170.723 393.494 170.25 393.078 169.928L380.477 154.169L379.345 153.298C378.926 152.981 378.398 152.84 377.876 152.907L375.982 153.161C375.46 153.228 374.986 153.5 374.664 153.917C374.342 154.333 374.199 154.861 374.267 155.383L393.235 299.562V299.569L394.395 308.388L395.775 318.86V318.874L397.916 335.168C397.95 335.448 398.044 335.716 398.192 335.955C398.34 336.194 398.539 336.399 398.774 336.554C399.004 336.712 399.266 336.82 399.542 336.87C399.818 336.92 400.101 336.91 400.373 336.842L401.574 336.54C402.034 336.421 402.437 336.145 402.713 335.758L403.248 334.997L403.495 334.64L411.785 311.804C412.076 311.396 412.201 310.894 412.135 310.398Z" fill="#3F3D56"/>
<path opacity="0.17" d="M380.474 154.17L403.497 334.643L403.247 334.997L402.714 335.756C402.438 336.143 402.035 336.42 401.574 336.538L400.372 336.84C400.099 336.907 399.816 336.917 399.54 336.867C399.264 336.818 399.001 336.711 398.769 336.553C398.538 336.395 398.342 336.19 398.194 335.951C398.047 335.713 397.952 335.446 397.915 335.168L374.27 155.385C374.201 154.863 374.343 154.335 374.664 153.917C374.985 153.5 375.458 153.226 375.981 153.158L377.88 152.908C378.137 152.873 378.399 152.89 378.65 152.958C378.901 153.025 379.137 153.142 379.342 153.301L380.474 154.17Z" fill="black"/>
<path d="M381.153 159.331L393.371 176.757L407.892 287.169L400.019 302.777L381.153 159.331Z" fill="#6C63FF"/>
<path d="M154.068 381.939C154.07 382.284 154.04 382.628 153.979 382.968C153.952 383.132 153.917 383.29 153.876 383.448C153.542 384.723 152.794 385.851 151.75 386.657C150.706 387.462 149.424 387.899 148.105 387.898H122.28V449.448C122.281 450.748 121.854 452.013 121.065 453.048C120.475 452.355 119.892 451.663 119.315 450.963C116.227 447.274 113.242 443.502 110.359 439.648V387.898H98.8299C97.2925 387.897 95.815 387.303 94.706 386.239C93.597 385.175 92.9422 383.724 92.8784 382.189C92.8146 380.654 93.3468 379.154 94.3638 378.002C95.3807 376.85 96.8038 376.135 98.3358 376.007C98.5005 375.993 98.6652 375.986 98.8299 375.986H148.105C149.685 375.986 151.201 376.612 152.32 377.729C153.438 378.845 154.067 380.359 154.068 381.939Z" fill="#3F3D56"/>
<path d="M565.58 381.939C565.58 383.145 565.214 384.323 564.531 385.318C563.847 386.312 562.877 387.075 561.75 387.507C561.216 387.712 560.654 387.837 560.083 387.878C559.932 387.891 559.774 387.898 559.623 387.898H548.1V443.762C547.929 443.989 547.75 444.215 547.572 444.441C544.861 447.905 542.068 451.299 539.192 454.625C538.274 454.108 537.511 453.356 536.982 452.446C536.452 451.536 536.175 450.501 536.18 449.448V387.898H510.348C509.586 387.901 508.831 387.754 508.125 387.466C507.236 387.111 506.446 386.546 505.822 385.821C505.198 385.095 504.759 384.229 504.542 383.297V383.29C504.222 381.936 504.392 380.512 505.023 379.271C505.016 379.264 505.016 379.264 505.023 379.264C505.295 378.718 505.652 378.218 506.08 377.783C506.635 377.214 507.299 376.762 508.032 376.454C508.765 376.145 509.553 375.986 510.348 375.986H559.623C561.202 375.986 562.717 376.613 563.835 377.729C564.952 378.845 565.58 380.358 565.58 381.937L565.58 381.939Z" fill="#3F3D56"/>
<path d="M565.185 267.181C562.733 267.181 560.304 267.664 558.038 268.602C555.772 269.539 553.713 270.914 551.979 272.647C550.245 274.38 548.869 276.438 547.93 278.702C546.992 280.966 546.509 283.393 546.509 285.844C546.509 290.174 548.016 294.368 550.771 297.71C553.525 301.052 557.357 303.333 561.609 304.162V334.687H573.53V267.181H565.185Z" fill="#3F3D56"/>
<path d="M239.102 335.33C237.913 334.633 236.585 334.204 235.213 334.075C233.84 333.946 232.456 334.119 231.157 334.582C229.859 335.045 228.678 335.787 227.697 336.756C226.717 337.725 225.961 338.896 225.483 340.188L203.948 341.027L201.047 351.051L231.661 352.617C233.887 353.276 236.277 353.096 238.379 352.112C240.48 351.128 242.148 349.407 243.065 347.276C243.982 345.146 244.086 342.753 243.355 340.551C242.625 338.349 241.111 336.492 239.102 335.33Z" fill="#9E616A"/>
<path d="M221.413 353.698L199.293 353.422L196.493 353.384L151.489 352.818C151.489 352.818 139.267 341.167 128.626 329.171L130.117 318.391C131.572 307.81 136.824 298.119 144.896 291.119C160.138 301.296 168.977 321.44 168.977 321.44L183.797 328.067C194.226 328.533 204.39 331.508 213.423 336.738L218.297 339.559L221.413 353.698Z" fill="#6C63FF"/>
<path d="M290.912 547.131H370.698C365.256 547.926 359.763 548.555 354.221 549.017H307.389C301.844 548.557 296.351 547.929 290.912 547.131Z" fill="#CCCCCC"/>
<path d="M306.953 506.992C308.497 493.066 316.936 479.252 330.145 474.55C325.103 488.931 325.315 504.629 330.741 518.869C332.854 524.353 335.775 530.232 333.931 535.813C332.784 539.285 329.9 541.968 326.659 543.665C323.418 545.362 319.807 546.198 316.241 547.018L315.545 547.609C309.697 534.875 305.409 520.918 306.953 506.992Z" fill="#CCCCCC"/>
<path d="M330.28 474.812C322.668 483.567 318.011 494.496 316.97 506.047C316.701 508.529 316.826 511.039 317.34 513.482C317.917 515.847 319.117 518.013 320.816 519.758C322.367 521.415 324.146 522.932 325.267 524.938C325.825 525.973 326.158 527.115 326.244 528.288C326.33 529.461 326.167 530.638 325.766 531.744C324.837 534.525 322.964 536.806 321.054 538.974C318.934 541.38 316.694 543.846 315.822 547.011C315.716 547.394 315.127 547.208 315.232 546.825C316.75 541.319 322.036 538.133 324.511 533.159C325.666 530.838 326.128 528.155 324.984 525.737C323.983 523.622 322.15 522.057 320.565 520.392C318.883 518.715 317.638 516.652 316.938 514.383C316.301 511.973 316.08 509.473 316.283 506.989C316.651 501.389 317.898 495.882 319.977 490.67C322.318 484.707 325.662 479.189 329.865 474.354C330.125 474.055 330.538 474.514 330.28 474.812Z" fill="white"/>
<path d="M317.086 502.307C315.17 501.87 313.473 500.766 312.296 499.193C311.12 497.62 310.542 495.68 310.664 493.72C310.67 493.641 310.707 493.566 310.766 493.513C310.826 493.459 310.904 493.431 310.984 493.434C311.064 493.437 311.14 493.471 311.196 493.528C311.251 493.586 311.282 493.663 311.282 493.743C311.164 495.568 311.703 497.375 312.802 498.837C313.9 500.3 315.486 501.322 317.272 501.719C317.66 501.805 317.472 502.394 317.086 502.307Z" fill="white"/>
<path d="M319.918 519.02C323.34 516.917 325.841 513.602 326.925 509.736C327.032 509.353 327.622 509.54 327.515 509.922C326.379 513.942 323.769 517.387 320.204 519.568C319.864 519.776 319.58 519.227 319.918 519.02Z" fill="white"/>
<path d="M322.899 485.285C323.605 485.608 324.38 485.752 325.155 485.702C325.93 485.652 326.681 485.411 327.34 485C327.677 484.788 327.96 485.337 327.625 485.548C326.895 485.999 326.066 486.264 325.21 486.321C324.353 486.378 323.496 486.224 322.713 485.874C322.637 485.847 322.573 485.792 322.536 485.72C322.498 485.648 322.49 485.564 322.512 485.486C322.537 485.408 322.591 485.344 322.664 485.306C322.736 485.268 322.821 485.26 322.899 485.285Z" fill="white"/>
<path d="M370.922 498.843C370.716 498.981 370.509 499.119 370.302 499.263C367.532 501.136 364.919 503.232 362.489 505.528C362.298 505.703 362.107 505.883 361.922 506.062C356.126 511.657 351.42 518.279 348.043 525.591C346.701 528.502 345.584 531.51 344.699 534.59C343.478 538.844 342.493 543.554 340.01 547.053C339.755 547.421 339.478 547.773 339.179 548.107L316.321 548.412C316.269 548.387 316.216 548.367 316.164 548.341L315.252 548.395C315.286 548.233 315.325 548.066 315.36 547.904C315.38 547.81 315.404 547.716 315.424 547.621C315.439 547.559 315.453 547.496 315.463 547.438C315.468 547.418 315.473 547.397 315.478 547.381C315.488 547.323 315.503 547.271 315.512 547.219C315.729 546.283 315.953 545.347 316.184 544.411C316.184 544.406 316.184 544.406 316.189 544.4C317.88 537.251 320.414 530.327 323.737 523.773C323.839 523.579 323.941 523.38 324.053 523.185C325.594 520.283 327.369 517.512 329.362 514.9C330.457 513.472 331.624 512.102 332.859 510.792C336.055 507.416 339.762 504.562 343.845 502.337C351.986 497.902 361.455 496.118 370.252 498.643C370.477 498.708 370.697 498.773 370.922 498.843Z" fill="#CCCCCC"/>
<path d="M370.875 499.133C359.523 501.545 349.219 507.469 341.428 516.065C339.718 517.885 338.306 519.964 337.244 522.224C336.28 524.459 335.933 526.912 336.238 529.326C336.478 531.583 336.985 533.864 336.671 536.14C336.493 537.303 336.071 538.415 335.433 539.403C334.795 540.391 333.955 541.234 332.969 541.875C330.552 543.536 327.682 544.231 324.851 544.813C321.708 545.459 318.434 546.08 315.831 548.082C315.515 548.324 315.157 547.821 315.472 547.579C320.001 544.096 326.142 544.732 331.115 542.25C333.435 541.092 335.42 539.227 335.964 536.608C336.439 534.318 335.918 531.965 335.656 529.682C335.324 527.331 335.572 524.934 336.38 522.701C337.324 520.394 338.654 518.265 340.312 516.404C343.98 512.154 348.293 508.507 353.094 505.597C358.555 502.244 364.55 499.85 370.819 498.518C371.207 498.436 371.26 499.052 370.875 499.133Z" fill="white"/>
<path d="M343.774 513.149C342.508 511.647 341.818 509.745 341.826 507.781C341.835 505.817 342.542 503.921 343.82 502.43C344.08 502.129 344.56 502.518 344.3 502.819C343.107 504.205 342.448 505.972 342.444 507.801C342.44 509.629 343.09 511.399 344.277 512.791C344.535 513.094 344.03 513.45 343.774 513.149Z" fill="white"/>
<path d="M335.966 528.198C339.965 528.576 343.96 527.435 347.154 525.001C347.47 524.759 347.829 525.262 347.513 525.504C344.184 528.03 340.024 529.21 335.864 528.807C335.467 528.768 335.572 528.159 335.966 528.198Z" fill="white"/>
<path d="M358.672 503.055C359.04 503.738 359.573 504.319 360.222 504.746C360.87 505.172 361.615 505.431 362.389 505.499C362.786 505.533 362.681 506.142 362.286 506.108C361.432 506.029 360.61 505.742 359.892 505.272C359.174 504.803 358.582 504.164 358.168 503.413C358.123 503.346 358.106 503.264 358.119 503.184C358.133 503.104 358.176 503.032 358.241 502.983C358.307 502.936 358.39 502.917 358.471 502.93C358.552 502.944 358.624 502.989 358.672 503.055Z" fill="white"/>
<path d="M382.779 518.244C386.794 518.244 390.049 514.992 390.049 510.98C390.049 506.968 386.794 503.715 382.779 503.715C378.764 503.715 375.509 506.968 375.509 510.98C375.509 514.992 378.764 518.244 382.779 518.244Z" fill="#CCCCCC"/>
<path d="M406.513 539.459C406.067 539.59 405.614 539.72 405.161 539.843C401.05 540.996 396.91 542.049 392.739 543.005C392.26 542.036 392.002 540.973 391.986 539.892C391.969 538.812 392.194 537.741 392.645 536.758C393.095 535.776 393.759 534.906 394.589 534.212C395.418 533.519 396.392 533.019 397.44 532.749C398.487 532.48 399.581 532.447 400.643 532.654C401.704 532.861 402.706 533.302 403.576 533.945C404.445 534.587 405.16 535.416 405.668 536.37C406.176 537.324 406.465 538.38 406.513 539.459Z" fill="#CCCCCC"/>
<path d="M448.046 523.865C447.491 524.125 446.935 524.386 446.379 524.64C445.775 524.928 445.164 525.202 444.56 525.476C443.881 525.785 443.208 526.087 442.529 526.388C439.976 527.527 437.395 528.624 434.808 529.68C434.774 529.625 434.74 529.564 434.705 529.502C433.799 527.804 433.603 525.817 434.162 523.976C434.72 522.135 435.986 520.59 437.682 519.68C439.378 518.77 441.366 518.57 443.21 519.123C445.054 519.676 446.603 520.937 447.518 522.63C447.728 523.026 447.905 523.439 448.046 523.865Z" fill="#CCCCCC"/>
<path d="M408.419 500.413C412.434 500.413 415.689 497.161 415.689 493.149C415.689 489.137 412.434 485.884 408.419 485.884C404.404 485.884 401.15 489.137 401.15 493.149C401.15 497.161 404.404 500.413 408.419 500.413Z" fill="#CCCCCC"/>
<path d="M341.735 95.12C298.973 106.36 251.592 113.197 203.416 115.07C196.355 115.454 189.278 115.406 182.223 114.926C166.72 113.623 153.441 108.753 138.652 106.093C131.542 104.817 123.622 103.884 116.465 102.506C118.118 100.455 119.802 98.4301 121.516 96.4299C136.95 97.7329 152.624 101.998 168.244 103.98C194.796 107.354 224.546 103.589 244.675 94.3039C254.44 89.7983 261.921 84.1749 271.652 79.6487C272.976 78.9697 274.409 78.5308 275.886 78.3526C278.968 78.0714 281.672 79.3127 283.875 80.4236C300.201 88.6599 323.905 95.3532 345.907 91.6705C347.547 92.9529 344.432 94.4136 341.735 95.12Z" fill="white"/>
<path d="M439.097 124.105C439.298 124.068 439.499 124.04 439.7 124.005C438.855 123.481 438.059 122.882 437.322 122.215L439.097 124.105Z" fill="white"/>
<path d="M570.807 140.354C561.617 141.088 552.38 141.635 543.095 141.993C536.034 142.374 528.957 142.326 521.903 141.849C506.4 140.54 493.12 135.677 478.331 133.017C464.777 130.582 448.306 129.409 439.7 124.005C461.943 120.158 484.988 127.99 507.923 130.904C526.475 133.184 545.281 132.256 563.518 128.161C566.058 132.152 568.487 136.217 570.807 140.354Z" fill="white"/>
<path d="M363.948 243.225C342.421 169.387 329.75 93.2562 329.75 16.3486V10.7748H322.597V16.3485C322.597 93.2562 309.926 169.387 288.399 243.225C287.358 246.8 286.831 250.504 286.833 254.227C286.833 255.635 287.111 257.029 287.65 258.33C288.189 259.631 288.979 260.813 289.975 261.808C290.972 262.804 292.155 263.593 293.456 264.132C294.758 264.671 296.153 264.948 297.562 264.948H311.868C311.868 266.826 312.238 268.685 312.957 270.419C313.676 272.153 314.729 273.729 316.058 275.057C317.386 276.384 318.963 277.437 320.699 278.156C322.435 278.874 324.295 279.244 326.173 279.244C328.052 279.244 329.912 278.874 331.648 278.156C333.384 277.437 334.961 276.384 336.289 275.057C337.617 273.729 338.671 272.153 339.39 270.419C340.109 268.685 340.479 266.826 340.479 264.948H351.611V295.76C350.041 295.805 348.548 296.45 347.438 297.561C346.328 298.672 345.687 300.166 345.644 301.735C345.602 303.304 346.162 304.83 347.21 306C348.258 307.169 349.714 307.893 351.28 308.023C352.845 308.154 354.401 307.68 355.628 306.7C356.856 305.72 357.661 304.308 357.879 302.754C358.097 301.199 357.711 299.62 356.801 298.341C355.891 297.061 354.525 296.179 352.984 295.874V264.948H354.785C357.63 264.948 360.359 263.819 362.371 261.808C364.384 259.797 365.514 257.07 365.514 254.227C365.516 250.504 364.989 246.8 363.948 243.225Z" fill="white"/>
</g>
<defs>
<clipPath id="clip0_4_53">
<rect width="606" height="550" fill="white"/>
</clipPath>
</defs>
</svg>
